<?xml version="1.0" encoding="utf-8"?>
<!-- Generator: Adobe Illustrator 24.0.1, SVG Export Plug-In . SVG Version: 6.00 Build 0)  -->
<svg version="1.1" id="Layer_1" xmlns="http://www.w3.org/2000/svg" xmlns:xlink="http://www.w3.org/1999/xlink" x="0px" y="0px"
	 viewBox="0 0 700 700" style="enable-background:new 0 0 700 700;" xml:space="preserve">
<style type="text/css">
	.st0{fill:#FFFFFF;}
	.st1{fill-rule:evenodd;clip-rule:evenodd;}
	.st2{fill:#231F20;}
</style>
<rect class="st0" width="700" height="700"/>
<g>
	<path class="st1" d="M286.5,31.7c-1.2,0.6-11.8,4.8-15.9,6.5c-66,26.5-117.5,98.1-147.9,174.9s-39.4,158.7-22.5,205
		c13.9,38.1,40,114.2,88,174.5c49.1,61.8,120.7,107.1,224.7,81c4.4-1.1,13.7-5.1,14.2-5.4c67-33.6,87.4-88.2,107.4-180.3
		c15-69.4,32.7-153.9,68.7-240c7.1-17,6.8-36,0.4-55.8c-9-27.8-30.2-57.2-58.6-83.7c-41.9-39.1-99.3-71.9-154.3-84.3
		C353,15.7,316.5,17,286.5,31.7L286.5,31.7z M549.7,257.2c-36.4,87.1-54.3,172.6-69.6,242.8c-11.4,52.6-21.1,96.4-36.3,125.2
		c-9,17.2-19.9,28.9-35,32.7c-96.3,24.2-162.6-18.1-208.1-75.3c-46.7-58.7-71.9-132.9-85.5-170c-16-43.7-6.3-120.9,22.4-193.5
		S214.1,78.3,276.5,53.3c22.3-8.9,51.4-6.8,82.2,2.4c48.1,14.3,100.2,45.7,138.7,82.4c21,20.1,38,41.7,47.7,62.9
		C554.1,220.7,556.8,240,549.7,257.2L549.7,257.2z M463.5,621.5c29-31.6,41.8-75.6,55.2-137c15.2-70.2,33.2-155.7,69.5-242.8
		c5.7-13.6,5.1-28.8-0.1-44.6c-8.3-25.6-28.1-52.5-54.2-76.9C494.1,83,439.5,51.7,387.2,39.9c-14.9-3.3-29.7-5.1-43.8-4.9
		c6.6,1.3,13.2,3,20,5c50.4,14.9,105,47.8,145.2,86.2c27.3,26.1,48,54.7,56.7,82c6.2,19.4,6.4,38.2-0.7,55.2
		c-35.9,86.1-53.6,170.6-68.7,240C485.5,551.3,476.3,592.1,463.5,621.5L463.5,621.5z"/>
</g>
<polygon class="st2" points="430.7,324.6 411.1,297.6 302.7,376.1 302.7,311 430.6,220 411.2,192.9 302.7,270.1 302.7,206.4 
	269.4,206.4 269.4,503.9 302.7,503.9 302.7,417.2 "/>
</svg>
